<?xml version="1.0" encoding="utf-8"?>
<!-- Generator: Adobe Illustrator 23.0.6, SVG Export Plug-In . SVG Version: 6.00 Build 0)  -->
<svg version="1.1" id="Capa_1" xmlns="http://www.w3.org/2000/svg" xmlns:xlink="http://www.w3.org/1999/xlink" x="0px" y="0px"
	 viewBox="0 0 49.261 49.261" style="enable-background:new 0 0 49.261 49.261;" xml:space="preserve">
<style type="text/css">
	.st0{fill:#FFFFFF;}
</style>
<g>
	<path class="st0" d="M19.063,38.252c4.192,0,7.941-1.895,10.439-4.875c0.418-0.496,0.061-1.255-0.588-1.255H9.213
		c-0.649,0-1.006,0.759-0.589,1.255C11.123,36.357,14.871,38.252,19.063,38.252"/>
	<path class="st0" d="M34.305,7.946h-5.107c-0.619,0-0.981,0.697-0.627,1.205l9.609,13.723c0.738,1.055,0.738,2.46,0,3.515
		l-9.609,13.723c-0.354,0.508,0.008,1.204,0.627,1.204h5.107c1,0,1.938-0.486,2.51-1.306l9.537-13.621
		c0.738-1.055,0.738-2.46,0-3.515L36.815,9.253C36.243,8.433,35.305,7.946,34.305,7.946"/>
	<path class="st0" d="M31.545,19.222c-0.051-0.115-0.101-0.229-0.154-0.342c-0.281-0.605-0.608-1.188-0.972-1.741
		c-2.437-3.691-6.622-6.129-11.377-6.129c-4.192,0-7.941,1.895-10.439,4.874c-0.417,0.497-0.06,1.255,0.589,1.255h9.851
		c0.788,0,1.549,0.124,2.263,0.351c1.589,0.505,2.949,1.525,3.884,2.866c0.355,0.51-0.002,1.21-0.625,1.21H3.287
		c-0.378,0-0.702,0.275-0.757,0.648c-0.115,0.789-0.175,1.596-0.175,2.416c0,0.822,0.06,1.628,0.175,2.416
		c0.055,0.375,0.378,0.649,0.757,0.649h22.592h0.002c2.269,0,4.249-1.233,5.308-3.066c0.521-0.901,0.821-1.947,0.821-3.064
		C32.01,20.736,31.844,19.943,31.545,19.222"/>
</g>
</svg>
